<svg width="111" height="65" viewBox="0 0 111 65" fill="none" xmlns="http://www.w3.org/2000/svg">
<path d="M42.429 25.176C43.6828 30.1911 42.5596 50.1212 41.8413 59.4593H66.3294C64.8602 58.186 65.4479 23.6087 66.3294 22.0415C71.8148 11.8544 67.309 7.83838 66.3294 7.05476C65.3499 6.27114 63.9786 2.15713 62.5093 1.47146C61.04 0.785796 59.6687 0.981701 58.1994 0.883749C56.7301 0.785796 55.5547 0.100133 52.7141 0.00218043C49.8734 -0.0957721 49.7755 3.13666 47.1308 3.62642C38.8048 5.58547 40.8618 18.907 42.429 25.176Z" fill="#E5D437"/>
<ellipse cx="46.837" cy="11.1687" rx="2.44881" ry="2.84062" fill="#181410"/>
<ellipse cx="52.9099" cy="5.68344" rx="2.25291" ry="3.03653" fill="#181410"/>
<ellipse cx="59.6702" cy="6.0274" rx="2.25291" ry="3.03653" transform="rotate(9.96209 59.6702 6.0274)" fill="#181410"/>
<ellipse cx="63.8806" cy="13.3853" rx="2.57503" ry="2.89211" transform="rotate(9.96209 63.8806 13.3853)" fill="#181410"/>
<path d="M0 46V17.68H1.44V46H0ZM5.76 46V17.68H7.2V46H5.76ZM11.52 46V17.68H14.4V46H11.52ZM15.8438 46V17.68H17.2838V46H15.8438ZM18.7238 46V17.68H20.1638V46H18.7238ZM24.4838 46V17.68H27.3638V46H24.4838ZM31.6875 46V17.68H34.5675V46H31.6875ZM36.0075 46V17.68H40.3275V46H36.0075ZM44.6475 46V17.68H46.0875V46H44.6475ZM47.5312 46V17.68H48.9713V46H47.5312ZM53.2913 46V17.68H56.1713V46H53.2913ZM60.4913 46V17.68H61.9313V46H60.4913ZM63.375 46V17.68H64.815V46H63.375ZM69.135 46V17.68H72.015V46H69.135ZM73.455 46V17.68H77.775V46H73.455ZM79.2188 46V17.68H82.0988V46H79.2188ZM86.4188 46V17.68H87.8588V46H86.4188ZM92.1788 46V17.68H93.6188V46H92.1788ZM95.0625 46V17.68H99.3825V46H95.0625ZM103.703 46V17.68H105.143V46H103.703ZM106.583 46V17.68H109.463V46H106.583Z" fill="#E5E7EF"/>
</svg>
