<svg width="740" height="320" viewBox="0 0 740 320" fill="none" xmlns="http://www.w3.org/2000/svg">
<path d="M0 192V3.19999H9.6V192H0ZM38.4 192V3.19999H48V192H38.4ZM76.8 192V3.19999H96V192H76.8ZM105.625 192V3.19999H115.225V192H105.625ZM124.825 192V3.19999H134.425V192H124.825ZM163.225 192V3.19999H182.425V192H163.225ZM211.25 192V3.19999H230.45V192H211.25ZM240.05 192V3.19999H268.85V192H240.05ZM297.65 192V3.19999H307.25V192H297.65ZM316.875 192V3.19999H326.475V192H316.875ZM355.275 192V3.19999H374.475V192H355.275ZM403.275 192V3.19999H412.875V192H403.275ZM422.5 192V3.19999H432.1V192H422.5ZM460.9 192V3.19999H480.1V192H460.9ZM489.7 192V3.19999H518.5V192H489.7ZM528.125 192V3.19999H547.325V192H528.125ZM576.125 192V3.19999H585.725V192H576.125ZM614.525 192V3.19999H624.125V192H614.525ZM633.75 192V3.19999H662.55V192H633.75ZM691.35 192V3.19999H700.95V192H691.35ZM710.55 192V3.19999H729.75V192H710.55Z" fill="#E5E7EF"/>
<path d="M223.216 288.224L228.16 283.04H240.016L244.72 288.224H223.216ZM221.824 264.656L226.96 269.648V281.408L221.824 286.112V264.656ZM223.168 239.456H244.576L239.92 244.64H228.064L223.168 239.456ZM221.68 262.976V241.52L226.816 246.176V258.08L221.68 262.976ZM266.647 264.656L271.831 269.648V281.408L266.647 286.112V264.656ZM291.079 286.112L285.895 281.168V269.36L291.079 264.656V286.112ZM272.215 266.384C271.095 265.488 269.959 264.608 268.807 263.744L272.215 261.2H285.319L288.679 263.744L285.319 266.384H272.215ZM268.039 239.456H289.495L284.743 244.64H272.983L268.039 239.456ZM266.503 262.976V241.52L271.687 246.176V258.08L266.503 262.976ZM290.935 241.52V262.976L285.751 258.32V246.464L290.935 241.52ZM327.021 286.112L321.837 281.168V269.36L327.021 264.656V286.112ZM309.645 243.776C308.525 242.88 307.405 242.032 306.285 241.232L309.645 238.64H339.117L342.477 241.232L339.117 243.776H326.877V262.976L321.693 258.32V246.464L324.525 243.776H309.645ZM358.596 264.656L363.732 269.648V281.408L358.596 286.112V264.656ZM364.164 266.384C362.98 265.456 361.86 264.576 360.804 263.744L364.164 261.2H377.268L380.628 263.744L377.268 266.384H364.164ZM359.94 239.456H381.396L376.74 244.64H364.884L359.94 239.456ZM358.548 262.976V241.52L363.684 246.176V258.08L358.548 262.976ZM405.579 288.224L410.523 283.04H422.379L427.083 288.224H405.579ZM404.187 264.656L409.323 269.648V281.408L404.187 286.112V264.656ZM404.043 262.976V241.52L409.179 246.176V258.08L404.043 262.976ZM463.793 286.112L458.609 281.168V269.36L463.793 264.656V286.112ZM463.697 241.52V262.976L458.513 258.32V246.464L463.697 241.52ZM492.488 250.88V242.096L506.744 259.088L521 242.096V250.88L510.44 263.504L521 276.08V284.912L506.744 267.92L492.488 284.912V276.08L503.048 263.504L492.488 250.88Z" fill="#E5E7EF"/>
</svg>
