<svg width="148" height="309" viewBox="0 0 148 309" fill="true" xmlns="http://www.w3.org/2000/svg">
<path d="M9.30963 130.777C15.7228 156.43 9.97767 258.373 6.30343 306.138H131.562C124.046 299.625 127.052 122.76 131.562 114.744C159.62 62.6361 136.572 42.0938 131.562 38.0855C126.551 34.0773 119.537 13.0339 112.021 9.52663C104.506 6.0194 97.4915 7.02146 89.976 6.52043C82.4605 6.0194 76.4481 2.51219 61.9181 2.01115C47.3881 1.51012 46.8871 18.0442 33.3592 20.5494C-9.2286 30.57 1.2931 98.7105 9.30963 130.777Z" fill="#E5D437" stroke="#181410" stroke-width="4"/>
<ellipse cx="31.8561" cy="59.1289" rx="12.5258" ry="14.53" fill="#181410"/>
<ellipse cx="62.9202" cy="31.0711" rx="11.5238" ry="15.532" fill="#181410"/>
<ellipse cx="97.4996" cy="32.8304" rx="11.5238" ry="15.532" transform="rotate(9.96209 97.4996 32.8304)" fill="#181410"/>
<ellipse cx="119.036" cy="70.4664" rx="13.1714" ry="14.7933" transform="rotate(9.96209 119.036 70.4664)" fill="#181410"/>
</svg>
